<?xml version="1.0" encoding="UTF-8" standalone="no"?>
<svg
   xmlns:dc="http://purl.org/dc/elements/1.1/"
   xmlns:cc="http://creativecommons.org/ns#"
   xmlns:rdf="http://www.w3.org/1999/02/22-rdf-syntax-ns#"
   xmlns:svg="http://www.w3.org/2000/svg"
   xmlns="http://www.w3.org/2000/svg"
   xmlns:sodipodi="http://sodipodi.sourceforge.net/DTD/sodipodi-0.dtd"
   xmlns:inkscape="http://www.inkscape.org/namespaces/inkscape"
   height="125.35761"
   width="166.20613"
   inkscape:version="1.0 (4035a4fb49, 2020-05-01)"
   sodipodi:docname="icon.svg"
   xml:space="preserve"
   viewBox="0 0 166.20613 125.35762"
   y="0px"
   x="0px"
   id="Layer_1"
   version="1.1"
   inkscape:export-filename="C:\Users\Public\repositories\MeetingDateProposer\MeetingDateProposer\MeetingDateProposer\MeetingDateProposer\ClientApp\src\assets\icon.png"
   inkscape:export-xdpi="350"
   inkscape:export-ydpi="350"><metadata
     id="metadata11"><rdf:RDF><cc:Work
         rdf:about=""><dc:format>image/svg+xml</dc:format><dc:type
           rdf:resource="http://purl.org/dc/dcmitype/StillImage" /><dc:title /></cc:Work></rdf:RDF></metadata><defs
     id="defs9"><linearGradient
       id="paint0_linear_62_11874"
       x1="76.9907"
       y1="435.009"
       x2="464.90201"
       y2="47.097599"
       gradientUnits="userSpaceOnUse"><stop
         stop-color="#FC00FF"
         id="stop853" /><stop
         offset="1"
         stop-color="#00DBDE"
         id="stop855" /></linearGradient></defs><sodipodi:namedview
     fit-margin-bottom="0"
     fit-margin-right="0"
     fit-margin-left="0"
     fit-margin-top="0"
     inkscape:current-layer="layer3"
     inkscape:window-maximized="1"
     inkscape:window-y="-8"
     inkscape:window-x="-8"
     inkscape:cy="71.924398"
     inkscape:cx="71.17467"
     inkscape:zoom="3.1247984"
     showgrid="false"
     id="namedview7"
     inkscape:window-height="1017"
     inkscape:window-width="1920"
     inkscape:pageshadow="2"
     inkscape:pageopacity="0"
     guidetolerance="10"
     gridtolerance="10"
     objecttolerance="10"
     borderopacity="1"
     bordercolor="#666666"
     pagecolor="#ffffff"
     inkscape:document-rotation="0" /><g
     style="display:inline"
     inkscape:label="Layer 1"
     id="layer1"
     inkscape:groupmode="layer"
     transform="translate(-15.920807,206.46966)" /><g
     transform="translate(-15.920807,206.46966)"
     style="display:inline"
     inkscape:label="Layer 2"
     id="layer2"
     inkscape:groupmode="layer" /><g
     transform="translate(-15.920807,206.46966)"
     style="display:inline"
     inkscape:label="Layer 3"
     id="layer3"
     inkscape:groupmode="layer"><g
       transform="matrix(0.24501375,0,0,0.24501375,11.442936,-206.46966)"
       id="g1217"><g
         id="g1161">
	<path
   id="path1159"
   style="stroke-width:0.245014"
   d="M 29.101562 0 C 26.0237 0 23.387462 1.0969245 21.195312 3.2890625 C 19.003665 5.4807105 17.908203 8.1159911 17.908203 11.193359 L 17.908203 17.908203 L 8.9550781 17.908203 C 6.529442 17.908203 4.4303876 18.794222 2.6582031 20.566406 C 0.88601889 22.338346 -2.9605947e-16 24.43838 0 26.863281 L 0 116.4043 C 0 118.82748 0.88601889 120.92605 2.6582031 122.69922 C 4.4301426 124.47091 6.529197 125.35742 8.9550781 125.35742 L 107.44727 125.35742 C 109.87217 125.35742 111.97221 124.47116 113.74219 122.69922 C 115.51462 120.92679 116.40234 118.82724 116.40234 116.4043 L 116.40234 61.570312 L 114.05078 56.533203 L 116.40234 55.542969 L 116.40234 38.154297 C 116.33494 38.262317 116.26374 38.36918 116.17188 38.46875 L 113.17578 41.716797 L 109.61523 38.15625 L 112.87305 35.146484 C 113.81632 34.274868 115.26629 34.55693 116.00781 35.294922 C 116.16216 35.44875 116.29146 35.637022 116.40234 35.839844 L 116.40234 26.863281 C 116.4021 24.437645 115.51559 22.338591 113.74414 20.566406 C 111.97392 18.794222 109.87412 17.908203 107.44922 17.908203 L 98.496094 17.908203 L 98.496094 11.193359 C 98.496094 8.1159911 97.398679 5.4809555 95.207031 3.2890625 C 93.014158 1.0971695 90.381577 -2.9605947e-16 87.302734 0 L 82.826172 0 C 79.747574 0 77.113768 1.0969245 74.921875 3.2890625 C 72.729247 5.4807105 71.632812 8.1159911 71.632812 11.193359 L 71.632812 17.908203 L 44.771484 17.908203 L 44.771484 11.193359 C 44.771484 8.1159911 43.67456 5.4809555 41.482422 3.2890625 C 39.290774 1.0969245 36.656723 -2.9605947e-16 33.578125 0 L 29.101562 0 z M 29.101562 8.9550781 L 33.578125 8.9550781 C 34.184289 8.9550781 34.709849 9.1759108 35.152344 9.6191406 C 35.595574 10.06188 35.816406 10.587195 35.816406 11.193359 L 35.816406 31.339844 C 35.816406 31.946988 35.594594 32.471078 35.152344 32.914062 C 34.709604 33.357303 34.185024 33.578125 33.578125 33.578125 L 29.101562 33.578125 C 28.495398 33.57837 27.970574 33.357303 27.527344 32.914062 C 27.084114 32.470833 26.863281 31.946743 26.863281 31.339844 L 26.863281 11.193359 C 26.863281 10.587195 27.084114 10.061635 27.527344 9.6191406 C 27.970574 9.1759108 28.494663 8.9550781 29.101562 8.9550781 z M 82.826172 8.9550781 L 87.302734 8.9550781 C 87.909878 8.9550781 88.433478 9.1759108 88.876953 9.6191406 C 89.319938 10.06188 89.539066 10.587195 89.539062 11.193359 L 89.539062 31.339844 C 89.539062 31.946988 89.318958 32.471078 88.876953 32.914062 C 88.434213 33.357303 87.909878 33.578125 87.302734 33.578125 L 82.826172 33.578125 C 82.219273 33.57837 81.693223 33.357303 81.251953 32.914062 C 80.809213 32.470833 80.587891 31.946743 80.587891 31.339844 L 80.587891 11.193359 C 80.587891 10.587195 80.809213 10.061635 81.251953 9.6191406 C 81.694938 9.1759108 82.219028 8.9550781 82.826172 8.9550781 z M 106.4082 41.125 L 110.20703 44.923828 L 107.44727 47.90625 L 107.44727 59.308594 L 110.01953 58.226562 L 112.57422 63.703125 L 108.6875 65.699219 L 107.44727 63.037109 L 107.44727 64.916016 L 103.50391 64.916016 L 104.80078 67.697266 L 101.49609 69.396484 L 107.44727 69.396484 L 107.44727 91.779297 L 87.300781 91.779297 L 87.300781 82.244141 L 86.738281 82.300781 C 86.372344 85.594167 84.946599 88.564258 82.826172 90.880859 L 82.826172 91.779297 L 81.931641 91.779297 C 79.60744 93.930229 76.625689 95.368977 73.322266 95.71875 L 73.322266 91.779297 L 69.935547 91.779297 L 69.935547 95.71875 C 66.62817 95.351258 63.646958 93.914732 61.326172 91.779297 L 60.441406 91.779297 L 60.441406 90.894531 C 58.299371 88.572788 56.866498 85.596022 56.517578 82.300781 L 60.441406 82.300781 L 60.441406 78.916016 L 56.517578 78.916016 C 56.884102 75.617357 58.315319 72.642405 60.441406 70.324219 L 60.441406 69.396484 L 61.367188 69.396484 C 63.685219 67.267741 66.652562 65.84567 69.935547 65.498047 L 69.935547 69.396484 L 73.322266 69.396484 L 73.322266 65.498047 C 75.177195 65.704153 76.923078 66.255121 78.513672 67.068359 C 78.602202 66.950766 78.68649 66.827668 78.791016 66.730469 L 80.742188 64.916016 L 60.441406 64.916016 L 60.441406 44.771484 L 82.826172 44.771484 L 82.826172 62.978516 L 87.166016 58.941406 L 87.300781 59.076172 L 87.300781 44.771484 L 103.875 44.771484 L 103.20117 44.097656 L 106.4082 41.125 z M 86.738281 82.300781 C 86.738281 82.300781 83.709307 82.171996 82.826172 79.736328 L 82.826172 82.300781 L 86.738281 82.300781 z M 8.9550781 44.771484 L 29.099609 44.771484 L 29.099609 64.916016 L 8.9550781 64.916016 L 8.9550781 44.771484 z M 33.578125 44.771484 L 55.962891 44.771484 L 55.962891 64.916016 L 33.578125 64.916016 L 33.578125 44.771484 z M 91.695312 64.916016 L 90.144531 66.589844 L 93.90625 64.998047 L 95.955078 69.396484 L 100.77539 69.396484 L 98.6875 64.916016 L 91.695312 64.916016 z M 8.9550781 69.396484 L 29.099609 69.396484 L 29.099609 91.779297 L 8.9550781 91.779297 L 8.9550781 69.396484 z M 33.578125 69.396484 L 55.962891 69.396484 L 55.962891 91.779297 L 33.578125 91.779297 L 33.578125 69.396484 z M 114.95312 72.667969 L 115.47852 78.689453 L 111.14453 79.234375 L 110.58984 72.882812 L 114.95312 72.667969 z M 8.9550781 96.255859 L 29.099609 96.255859 L 29.099609 116.40234 L 8.9550781 116.40234 L 8.9550781 96.255859 z M 33.578125 96.255859 L 55.962891 96.255859 L 55.962891 116.40234 L 33.578125 116.40234 L 33.578125 96.255859 z M 60.441406 96.255859 L 82.826172 96.255859 L 82.826172 116.40234 L 60.441406 116.40234 L 60.441406 96.255859 z M 87.300781 96.255859 L 107.44727 96.255859 L 107.44727 116.40234 L 87.300781 116.40234 L 87.300781 96.255859 z "
   transform="matrix(4.0814036,0,0,4.0814036,18.275999,0)" />
</g><g
         id="g1163">
</g><g
         id="g1165">
</g><g
         id="g1167">
</g><g
         id="g1169">
</g><g
         id="g1171">
</g><g
         id="g1173">
</g><g
         id="g1175">
</g><g
         id="g1177">
</g><g
         id="g1179">
</g><g
         id="g1181">
</g><g
         id="g1183">
</g><g
         id="g1185">
</g><g
         id="g1187">
</g><g
         id="g1189">
</g><g
         id="g1191">
</g></g><path
       id="path1351-6-6"
       style="display:inline;fill:#ff0000;stroke-width:0.412856"
       d="m 71.628906,56.703125 c -0.90828,0 -1.693359,0.743779 -1.693359,1.693359 v 3.714844 c -8.91772,0.78444 -16.018293,7.928268 -16.802735,16.804688 h -3.716796 c -0.94958,0 -1.691407,0.741846 -1.691407,1.691406 0,0.94958 0.783127,1.693359 1.691407,1.693359 h 3.716796 c 0.784442,8.91772 7.926315,16.018325 16.802735,16.802735 v 3.716794 c 0,0.90828 0.743799,1.69141 1.693359,1.69141 0.90829,0 1.69336,-0.74185 1.69336,-1.69141 V 99.103516 C 82.239986,98.319106 89.34059,91.177201 90.125,82.300781 h 3.714844 c 0.699161,0 1.321177,-0.442246 1.572265,-1.078125 l -8.080078,1.017578 -0.59375,0.06055 c -0.78444,7.05986 -6.397435,12.674829 -13.416015,13.417969 v -6.8125 c 0,-0.90829 -0.74378,-1.693359 -1.69336,-1.693359 -0.90828,0 -1.693359,0.743779 -1.693359,1.693359 v 6.8125 C 62.875697,94.93431 57.260748,89.319361 56.517578,82.300781 h 6.8125 c 0.9083,0 1.693359,-0.743779 1.69336,-1.693359 0,-0.90828 -0.78506,-1.691406 -1.69336,-1.691406 h -6.8125 c 0.78444,-7.05985 6.399409,-12.674799 13.417969,-13.417969 v 6.8125 c 0,0.9083 0.743799,1.691406 1.693359,1.691406 0.90829,0 1.69336,-0.741836 1.69336,-1.691406 v -6.8125 c 1.854299,0.206036 3.6037,0.75342 5.195312,1.564453 0.08736,-0.11541 0.170588,-0.23639 0.273438,-0.332031 l 2.27539,-2.115235 c -2.311812,-1.368974 -4.938363,-2.255949 -7.74414,-2.503906 v -3.714844 c 0,-0.90828 -0.74378,-1.693359 -1.69336,-1.693359 z m 15.109375,25.597656 c 0,0 -3.667957,-0.161071 -4.101562,-3.384765 h -2.708985 c -0.90829,0 -1.693359,0.741846 -1.693359,1.691406 0,0.90829 0.743779,1.693359 1.693359,1.693359 z m 0.173828,-12.226562 -1.925781,2.078125 -0.414062,0.427734 c 0,0 -0.02083,0.01318 -0.02148,0.01367 0.32558,0.5233 0.62214,1.06619 0.882813,1.628906 0.211752,-0.06661 0.425556,-0.108369 0.636718,-0.11914 l 2.902344,-0.148438 C 88.442389,72.57196 87.741328,71.275472 86.912114,70.074217 Z"
       transform="translate(15.920807,-206.46966)" /><g
       id="g1007-5-0"
       style="display:inline;fill:#225500"
       transform="matrix(1.6055796,-0.74869403,0.74869403,1.6055796,-189.0647,-21.112021)"><path
         id="path851-5-04-2"
         style="fill:#225500;fill-opacity:1;stroke-width:0.272937"
         d="m 150.13477,28.585938 c -0.28547,0.0112 -0.57042,0.0784 -0.83789,0.203124 l -15.83008,7.384766 c -0.69483,0.324225 -1.16825,0.987275 -1.24805,1.75 l -1.08984,10.439453 c -1.85827,-1.462897 -4.42335,-1.88534 -6.75782,-0.904297 l -3.66015,1.539063 -4.08203,1.714844 -8.19336,3.441406 -4.12696,1.736328 -6.966793,2.923828 -1.982422,2.144531 -0.921875,-0.921875 -2.714844,1.144532 -1.630859,0.685547 2.298828,2.298828 -2.232422,2.408203 3.748047,-1.576172 3.121094,6.697265 -3.996094,2.052735 4.462891,-0.228516 0.238281,2.720703 0.816406,-0.419922 3.310542,-2.511724 8.83204,-3.72851 3.98242,-2.044922 7.90429,-4.064453 3.93555,-2.023437 3.53321,-1.814454 c 2.25199,-1.157444 3.57647,-3.39566 3.65039,-5.759765 l 8.69726,5.875 c 0.14989,0.101374 0.30892,0.181881 0.47461,0.242187 0.53756,0.195668 1.13888,0.175367 1.66992,-0.07227 l 15.83203,-7.38086 c 0.71322,-0.332363 1.19208,-1.022273 1.25391,-1.80664 0.0618,-0.784382 -0.3032,-1.542144 -0.95508,-1.982422 l -7.35547,-4.96875 2.44336,-1.138672 c 1.09286,-0.509606 1.5643,-1.807535 1.05469,-2.900391 -0.50961,-1.092857 -1.80497,-1.564367 -2.89844,-1.054687 l -2.44531,1.138672 0.92383,-8.828125 c 0.082,-0.782266 -0.26385,-1.549395 -0.9043,-2.00586 -0.16019,-0.114243 -0.33403,-0.205242 -0.51367,-0.271484 -0.26949,-0.09939 -0.55438,-0.144017 -0.83984,-0.132812 z m -2.48438,5.789062 -0.79687,7.597656 -11.21485,5.230469 0.79492,-7.597656 z m 1.05078,11.558594 6.33203,4.27539 -11.21679,5.228516 -6.33008,-4.273438 z m -21.76758,5.363281 c 0.291,-0.0054 0.57926,0.04513 0.84766,0.142578 h 0.002 c 0.56559,0.206343 1.05108,0.628814 1.32618,1.21875 0.53673,1.151529 0.0714,2.510915 -1.0586,3.091797 l -3.8125,1.958984 -2.1289,-4.564453 3.95117,-1.662109 c 0.28532,-0.11995 0.5814,-0.180107 0.87304,-0.185547 z m -8.85351,3.541016 2.27148,4.86914 -3.88672,1.998047 -2.41406,-5.171875 z m -8.06055,3.388671 2.55469,5.476563 -3.88672,1.996094 -2.69336,-5.779297 z m -8.05469,3.386719 2.83594,6.083985 -3.88672,1.998046 -2.978513,-6.390624 z m -24.12109,7.501953 c -0.151021,0.28856 -0.29294,0.583707 -0.412109,0.892578 -0.568444,1.474247 -0.712052,3.036642 -0.439453,4.546876 l -5.375,2.501953 c -0.0048,0.0022 -0.0077,0.0058 -0.01367,0.0098 l -0.832032,0.734375 -0.318359,0.703125 c -0.120906,0.472031 -0.114579,0.980948 0.107422,1.457032 0.254804,0.546426 0.705226,0.937725 1.230469,1.128906 0.525003,0.191087 1.125448,0.182537 1.671875,-0.07227 l 5.373047,-2.507812 c 0.946599,1.137168 2.178429,2.00795 3.605468,2.527343 0.05275,0.01923 0.104714,0.0403 0.158203,0.05859 0.544981,0.186575 1.098323,0.309642 1.654297,0.382813 -0.820975,-0.530556 -1.557105,-1.389133 -1.658203,-2.845704 -0.05379,-0.775311 0.131506,-1.515034 0.447266,-2.171874 -0.608408,-0.412216 -1.105623,-0.969359 -1.425781,-1.65625 -0.18519,-0.397142 -0.28434,-0.813649 -0.337891,-1.234376 -0.739155,-0.07742 -1.516007,-0.389962 -2.238281,-1.138671 -0.888866,-0.921456 -1.24726,-2.171688 -1.197266,-3.316407 z"
         transform="matrix(0.5115871,0.23855697,-0.23855697,0.5115871,149.0863,-45.925856)"
         sodipodi:nodetypes="sccccccccccccccccccccccccccccccsccscccsccccssccccccccccscccccccsccccccccccccccccccccccssccccccccccc" /></g><g
       transform="matrix(1.7648198,-0.1544017,0.1544017,1.7648198,-315.16285,237.72694)"
       style="display:inline;fill:#225500"
       id="g1007-6-5-8"><path
         id="path851-5-7-2-0"
         style="fill:#225500;fill-opacity:1;stroke-width:0.272937"
         d="m 161.92773,58.439453 -17.39843,1.523438 c -0.76382,0.06702 -1.43758,0.529321 -1.77344,1.21875 l -4.59375,9.4375 c -1.24586,-2.010236 -3.5118,-3.285562 -6.04102,-3.16211 l -3.96679,0.195313 -4.42188,0.214844 -8.87695,0.43164 -4.4707,0.220703 -9.04102,0.439453 -4.595703,0.226563 -9.4375,0.458984 -2.324219,2.507813 -0.414062,0.427734 c 0,0 -2.421052,1.86028 -4.669922,0.535156 -0.803333,1.07662 -1.346401,2.29705 -1.570313,3.597657 l -5.90625,0.515625 c -0.0053,4.63e-4 -0.01055,0.0029 -0.01758,0.0039 L 71.375,77.636719 70.835938,78.189453 c -0.275059,0.402208 -0.442268,0.882946 -0.396485,1.40625 0.05255,0.600621 0.341353,1.123138 0.769531,1.482422 0.427987,0.359123 0.997036,0.556454 1.597657,0.503906 L 78.710938,81.0625 c 0.50058,1.392347 1.360102,2.633238 2.523437,3.609375 0.04299,0.03607 0.08684,0.07179 0.130859,0.107422 0.753783,0.608199 1.584534,1.071996 2.466797,1.388672 l 4.75,0.324219 9.574219,-1.214844 4.56445,-0.572266 8.98047,-1.136719 4.43945,-0.560547 8.81836,-1.115234 4.39258,-0.55664 3.93946,-0.498047 c 2.51207,-0.317409 4.52235,-1.967816 5.40039,-4.164063 l 6.16406,8.498047 c 0.10618,0.146492 0.22821,0.277284 0.36328,0.390625 0.43822,0.367724 1.00808,0.551086 1.5918,0.5 l 17.40039,-1.519531 c 0.78388,-0.06839 1.47245,-0.5536 1.79883,-1.269531 0.32637,-0.715932 0.24322,-1.552773 -0.21875,-2.189454 l -5.21485,-7.183593 2.68555,-0.236329 c 1.20124,-0.105095 2.08947,-1.162039 1.98437,-2.363281 -0.10509,-1.201242 -1.16144,-2.089344 -2.36328,-1.984375 l -2.6875,0.234375 3.88867,-7.980469 c 0.34462,-0.707052 0.27969,-1.545367 -0.16601,-2.193359 -0.11147,-0.162212 -0.24252,-0.306005 -0.38867,-0.429687 -0.43848,-0.371116 -1.01353,-0.55926 -1.60157,-0.507813 z m -3.45703,4.6875 -3.3457,6.867188 -12.32812,1.078125 3.3457,-6.867188 z m -26.13867,8.691406 c 0.61827,-0.03026 1.19439,0.178991 1.63281,0.546875 0.46165,0.38737 0.77329,0.950527 0.83008,1.59961 0.11054,1.265657 -0.79218,2.383603 -2.05273,2.542968 l -4.25196,0.53711 -0.43945,-5.017578 z m -8.64648,0.421875 0.46875,5.353516 -4.33594,0.548828 -0.5,-5.6875 z m -8.73243,0.427735 0.5254,6.021484 -4.33399,0.544922 -0.55469,-6.351563 z m -8.72851,0.427734 0.58398,6.6875 -4.33593,0.548828 -0.61328,-7.023437 z m -8.730469,0.423828 0.642578,7.361328 -10.925781,1.378907 c -1.121698,0.141882 -2.226015,-0.17107 -3.105469,-0.88086 -0.881769,-0.709623 -1.415315,-1.719237 -1.513672,-2.845703 -0.09854,-1.126273 0.253079,-2.214455 0.996094,-3.066406 0.743187,-0.851806 1.777181,-1.351056 2.90625,-1.40625 z m 58.011719,0.828125 4.48633,6.181641 -12.32813,1.078125 -4.48633,-6.181641 z"
         transform="matrix(0.5623259,0.04919713,-0.04919713,0.5623259,208.03011,-233.49489)" /></g><g
       transform="matrix(1.2526827,-1.2526827,1.2526827,1.2526827,-136.61291,67.799058)"
       style="display:inline;fill:#225500"
       id="g1007-5-7-0"><path
         id="path851-5-04-1-0"
         style="fill:#225500;fill-opacity:1;stroke-width:0.154066"
         d="m 219.47228,4.7826079 c -0.22831,-0.2302679 -0.5424,-0.3646038 -0.8756,-0.3646084 l -9.85945,0.00139 c -0.43281,1.14e-4 -0.83373,0.22684 -1.05651,0.5980024 l -3.04802,5.0809491 c -0.60168,-1.1917011 -1.81304,-2.0207248 -3.24136,-2.0757401 l -2.2401,-0.085627 -2.49697,-0.096679 -5.01327,-0.1933492 -2.5246,-0.096678 -5.10581,-0.1974921 -2.59502,-0.098052 -5.44279,-0.2113055 -2.65441,0.4143254 c -0.48054,0.2214723 -0.92637,0.5241002 -1.3203,0.9032186 -0.6425,0.6185994 -1.08843,1.3831112 -1.30925,2.2207569 l -3.34633,-0.0014 c -0.003,0 -0.006,7.7e-4 -0.01,0.0014 l -0.60058,0.177178 -0.33023,0.284123 c -0.17446,0.212642 -0.29279,0.474123 -0.29279,0.770641 0,0.340331 0.13736,0.648339 0.36046,0.871445 0.223,0.223001 0.5325,0.361848 0.87283,0.361848 l 3.34633,-0.0014 c 0.21299,0.807579 0.63543,1.546938 1.24158,2.153083 0.0224,0.02242 0.0447,0.04555 0.0677,0.06767 0.39395,0.37909 0.83838,0.680355 1.31892,0.901837 l 2.6558,0.415701 5.44278,-0.211308 2.59503,-0.09805 5.1058,-0.197496 2.5246,-0.09667 5.01327,-0.193351 2.49698,-0.09667 2.24008,-0.08563 c 1.42822,-0.0549 2.63958,-0.883932 3.24137,-2.075744 l 3.04802,5.080951 c 0.0525,0.08762 0.11469,0.167167 0.18507,0.237546 0.22833,0.228339 0.5407,0.360456 0.87145,0.360455 l 9.85944,0.0014 c 0.44416,1.1e-4 0.85434,-0.239099 1.07309,-0.62562 0.21875,-0.38653 0.21326,-0.860836 -0.0152,-1.241586 l -2.57845,-4.296497 h 1.52194 c 0.68066,0 1.23191,-0.551252 1.23191,-1.231913 0,-0.680662 -0.55092,-1.231805 -1.23191,-1.231913 h -1.52194 l 2.57845,-4.2965083 c 0.22857,-0.3806328 0.23395,-0.8552703 0.0152,-1.2415743 -0.0547,-0.096661 -0.12139,-0.1842778 -0.19749,-0.2610209 z m -3.05078,2.1006007 -2.21938,3.6971174 -6.98544,2e-6 2.21938,-3.6971178 z m -2.21938,6.1637044 2.21938,3.697122 -6.98544,3e-6 -2.21938,-3.697124 z m -12.01529,-2.173799 c 0.24054,0.240544 0.38808,0.572723 0.38808,0.940511 -1.1e-4,0.717153 -0.56215,1.301023 -1.27883,1.328619 l -2.41825,0.09253 -10e-6,-2.842241 2.41825,0.09253 c 0.34916,0.0134 0.66235,0.159637 0.89079,0.388084 z m -5.77424,-0.575902 v 3.032824 l -2.46521,0.0953 -0.001,-3.222034 z m -4.9318,-0.189211 v 3.411238 l -2.46383,0.09391 10e-6,-3.599063 z m -4.92903,-0.1892063 v 3.7896523 l -2.46521,0.09529 1e-5,-3.9802358 z M 181.62135,9.728211 v 4.170826 l -6.21204,0.237543 c -0.63774,0.02462 -1.24324,-0.205314 -1.70286,-0.647721 -0.46093,-0.442412 -0.71136,-1.036951 -0.71125,-1.675237 0,-0.638176 0.25152,-1.232715 0.71125,-1.675235 0.45982,-0.4424296 1.06523,-0.6722307 1.70285,-0.647722 z"
         sodipodi:nodetypes="scccccccccccccccccccssccsccccccccccccsccsccsscccssccccccccccscccccsccccccccccccccccccccccc" /></g></g></svg>
